<svg width="508" height="545" viewBox="0 0 508 545" fill="none" xmlns="http://www.w3.org/2000/svg">
<path d="M236.225 2.57815L236.218 2.57914C214.97 5.86301 197.369 20.638 190.105 41.4515C187.334 49.6771 186.739 62.8918 188.764 72.1634C193.592 92.9996 210.204 109.739 231.898 115.162L231.898 115.162L231.91 115.165C242.711 117.937 258.137 116.218 269.367 110.99C269.367 110.99 269.368 110.99 269.369 110.989L270.376 110.517L268.399 107.784C268.398 107.782 268.397 107.781 268.395 107.779C261.068 97.7666 256.267 84.9391 254.43 70.7674C251.758 51.2252 257.812 28.8052 269.91 12.6059L269.913 12.6026L272.405 9.27966L270.693 8.37862C260.246 3.06174 247.177 0.848877 236.225 2.57815Z" fill="black" stroke="white" stroke-width="4"/>
<path d="M325.92 4.49189C319.121 5.2261 314.029 6.50723 309.278 8.91202C304.508 11.3269 299.955 14.9384 294.324 20.5202C282.992 31.8529 277.413 45.0465 277.413 61.0026C277.413 83.8364 289.675 103.436 310.283 113.402C327.634 121.788 350.761 119.947 366.465 108.965C382.646 97.6286 391.413 81.0325 391.413 61.7026C391.413 45.0047 386.204 32.1222 374.998 20.9168C362.266 8.18404 345.38 2.54784 325.92 4.49189Z" fill="black" stroke="white" stroke-width="4"/>
<path d="M210.551 540.85C210.167 541.398 209.809 541.944 209.494 542.45C210.966 542.501 212.96 542.523 215.358 542.52C220.793 542.512 228.207 542.372 236.092 542.141C251.894 541.678 269.433 540.854 276.683 540.016L276.692 540.015C349.523 531.945 408.537 510.045 453.17 474.636L453.172 474.634C461.22 468.265 470.971 458.989 479.516 449.872C488.096 440.718 495.297 431.894 498.369 426.424L498.373 426.415L498.378 426.407C501.75 420.531 504.073 413.614 505.075 407.29C506.092 400.87 505.687 395.454 504.043 392.335L504.033 392.316L504.024 392.297C503.144 390.537 501.772 388.773 500.294 387.386C498.771 385.957 497.375 385.151 496.503 384.96C486.678 382.978 480.529 383.905 456.33 391.705C405.84 408.167 360.531 415.503 309.813 415.503C297.094 415.503 281.925 415.003 276.138 414.495L276.127 414.494L276.116 414.493C229.405 409.872 189.792 395.188 167.732 374.05C149.402 356.635 141.275 335.976 145.552 316.306C146.116 313.309 148.415 307.626 150.415 303.526L150.418 303.52C151.943 300.42 153.224 298.205 154.836 296.263C156.449 294.32 158.321 292.734 160.91 290.805C177.425 278.267 203.78 275.919 242.252 282.532L242.254 282.532C259.904 285.589 296.98 285.399 318.097 282.028L318.099 282.027C339.361 278.649 360.047 272.498 374.409 265.219L374.418 265.214L374.427 265.209C376.497 264.187 377.875 263.496 378.838 262.846C379.754 262.228 380.064 261.795 380.213 261.395C380.387 260.925 380.462 260.169 380.251 258.66C380.041 257.162 379.597 255.213 378.965 252.457C373.034 227.253 360.885 203.589 345.565 187.282C342.848 184.465 341.296 182.98 339.824 182.01C338.424 181.087 337.013 180.577 334.436 179.945L334.428 179.943C328.525 178.467 319.742 178.053 309.042 178.748C298.382 179.441 285.957 181.225 272.838 184.057C266.456 185.475 256.854 186.892 251.528 187.199L251.526 187.199C224.46 188.731 191.874 177.123 168.834 157.941C165.425 155.108 162.343 153.281 158.865 152.141C155.37 150.995 151.357 150.504 146.029 150.503C140.022 150.602 137.508 151.099 135.035 152.377C132.834 153.522 129.222 156.547 125.482 160.312C121.786 164.033 118.185 168.252 115.985 171.6C109.68 181.255 104.28 192.861 101.744 202.222C92.6501 236.1 78.0693 297.927 74.7823 316.25C74.0124 320.682 73.4127 330.541 73.4127 339.003V339.011L73.4127 339.018C73.3135 351.515 73.7077 355.235 75.6509 363.009C79.8693 379.29 85.4142 389.705 97.1024 402.768C103.117 409.461 107.328 412.842 126.522 425.639L126.525 425.641C138.913 433.932 155.491 444.718 163.469 449.704C184.031 462.443 187.786 465.343 197.748 475.61L197.756 475.618L197.763 475.626C207.216 485.581 213.234 493.91 215.977 500.979L215.981 500.988L215.984 500.996C218.002 506.341 218.24 513.922 217.244 521.199C216.247 528.49 213.955 535.879 210.563 540.833L210.557 540.841L210.551 540.85Z" fill="black" stroke="white" stroke-width="4"/>
<path d="M372.313 181.503H371.397C380.093 192.893 388.268 208.332 394.298 223.606C400.407 239.078 404.413 254.63 404.413 265.803C404.413 269.81 403.785 272.895 401.054 275.838C398.525 278.563 394.272 281.06 387.628 284.481L387.627 284.481C355.772 300.864 322.339 307.802 275.917 307.903H275.913C253.709 307.903 249.428 307.706 239.014 305.563C231.902 304.141 222.266 303.173 213.091 302.788C203.885 302.402 195.338 302.611 190.357 303.473C182.662 304.837 176.164 307.815 173.082 311.06C171.964 312.308 170.527 315.129 169.348 318.458C168.176 321.767 167.413 325.14 167.413 327.303C167.413 334.43 171.335 342.907 178.314 351.148C185.253 359.341 195.034 367.077 206.307 372.714C219.064 379.092 245.648 386.846 265.723 390.027C279.63 392.196 320.561 393.1 339.856 391.609C380.091 388.422 404.343 383.654 448.012 369.995C474.983 361.504 481.322 360.179 492.246 360.907L492.259 360.908L498.121 361.337L497.922 358.997C497.684 356.833 497.266 350.827 496.813 344.303C496.683 342.433 496.55 340.52 496.418 338.643L496.417 338.636C493.721 298.289 489.528 262.164 484.294 232.728C479.05 203.241 472.79 180.633 466.028 167.205C463.816 162.83 461.706 159.549 459.792 157.393C457.803 155.152 456.362 154.503 455.513 154.503C455.518 154.503 455.512 154.504 455.496 154.507C455.419 154.522 455.095 154.585 454.433 154.814C453.723 155.06 452.812 155.429 451.756 155.903C449.648 156.848 447.058 158.166 444.512 159.635C434 165.729 420.727 171.184 407.742 175.117C394.778 179.044 381.941 181.503 372.313 181.503Z" fill="black" stroke="white" stroke-width="4"/>
<path d="M2.01262 419.487L2.01265 419.492C2.06282 428.622 2.1391 433.544 2.50301 437.231C2.85903 440.839 3.4905 443.269 4.72891 447.43C14.4296 479.764 36.6536 503.48 74.7771 521.799C91.8024 529.915 104.635 534.066 126.282 538.137L126.293 538.139C131.002 539.052 141.588 539.703 152.205 539.928C162.844 540.154 173.094 539.943 177.169 539.232L177.173 539.232C180.945 538.581 184.784 536.152 187.974 532.458C191.147 528.783 193.561 523.983 194.545 518.842C195.334 514.332 195.044 510.853 193.092 506.87C191.067 502.739 187.216 497.984 180.573 491.09L180.57 491.087C173.62 483.844 167.776 479.355 157.408 473.332L157.402 473.329C153.244 470.895 136.491 460.058 120.31 449.371L120.31 449.371C96.4617 433.605 89.2579 428.382 83.1751 422.093C61.7146 399.92 49.4127 369.422 49.4127 338.803C49.4127 329.818 51.1788 314.618 53.5439 302.81C51.5928 305.355 49.1866 308.512 46.6121 311.903C19.5846 348.307 8.78008 368.834 3.16925 394.417C2.41881 398.09 1.9126 406.785 2.01262 419.487Z" fill="black" stroke="white" stroke-width="4"/>
</svg>
