<svg width="516" height="553" viewBox="0 0 516 553" fill="none" xmlns="http://www.w3.org/2000/svg">
<g filter="url(#filter0_d)">
<path d="M239.913 0.602611C217.913 4.00261 199.713 19.3026 192.213 40.8026C189.313 49.4026 188.713 63.0026 190.813 72.6026C195.813 94.2026 213.013 111.503 235.413 117.103C246.713 120.003 262.613 118.203 274.213 112.803L277.413 111.303L274.013 106.603C266.913 96.9026 262.213 84.4026 260.413 70.5026C257.813 51.5026 263.713 29.6026 275.513 13.8026L279.413 8.60261L275.613 6.60261C264.813 1.10261 251.313 -1.19739 239.913 0.602611Z" fill="black"/>
<path d="M329.713 2.50261C315.813 4.00261 308.313 7.80261 296.913 19.1026C285.213 30.8026 279.413 44.5026 279.413 61.0026C279.413 84.6026 292.113 104.903 313.413 115.203C331.413 123.903 355.313 122.003 371.613 110.603C388.313 98.9026 397.413 81.7026 397.413 61.7026C397.413 44.5026 392.013 31.1026 380.413 19.5026C367.213 6.30261 349.713 0.502611 329.713 2.50261Z" fill="black"/>
<path d="M138.113 150.603C133.113 153.203 122.913 163.503 118.313 170.503C111.913 180.303 106.413 192.103 103.813 201.703C94.7127 235.603 80.1127 297.503 76.8127 315.903C76.0127 320.503 75.4127 330.503 75.4127 339.003C75.3127 351.603 75.7127 355.503 77.7127 363.503C82.0127 380.103 87.7127 390.803 99.6127 404.103C105.813 411.003 110.213 414.503 129.413 427.303C141.813 435.603 158.413 446.403 166.413 451.403C186.913 464.103 190.513 466.903 200.313 477.003C209.713 486.903 215.513 495.003 218.113 501.703C221.813 511.503 219.213 530.503 212.913 539.703C211.513 541.703 210.413 543.703 210.413 544.103C210.413 545.303 266.213 543.703 280.913 542.003C354.013 533.903 413.413 511.903 458.413 476.203C474.713 463.303 497.713 438.803 504.113 427.403C511.113 415.203 513.713 398.803 509.813 391.403C507.813 387.403 503.713 383.603 500.913 383.003C490.513 380.903 483.913 382.003 459.713 389.803C409.413 406.203 364.313 413.503 313.813 413.503C301.113 413.503 286.013 413.003 280.313 412.503C233.813 407.903 194.713 393.303 173.113 372.603C155.113 355.503 147.413 335.503 151.513 316.703C152.013 314.003 154.213 308.503 156.213 304.403C159.213 298.303 161.013 296.203 166.113 292.403C181.913 280.403 207.513 277.903 245.913 284.503C263.813 287.603 301.113 287.403 322.413 284.003C343.813 280.603 364.713 274.403 379.313 267.003C387.413 263.003 387.413 262.903 384.913 252.003C378.913 226.503 366.613 202.503 351.013 185.903C345.613 180.303 344.213 179.303 338.913 178.003C326.513 174.903 302.813 176.403 276.413 182.103C270.113 183.503 260.613 184.903 255.413 185.203C228.913 186.703 196.813 175.303 174.113 156.403C167.013 150.503 160.913 148.503 150.013 148.503C143.913 148.603 141.013 149.103 138.113 150.603Z" fill="black"/>
<path d="M447.513 157.903C426.813 169.903 395.013 179.503 376.313 179.503H371.213L373.413 182.203C390.813 204.703 406.413 244.203 406.413 265.803C406.413 273.303 404.113 275.803 390.713 282.703C359.213 298.903 326.113 305.803 279.913 305.903C257.713 305.903 253.613 305.703 243.413 303.603C228.913 300.703 204.413 299.703 194.013 301.503C186.113 302.903 179.113 306.003 175.613 309.703C172.813 312.803 169.413 322.303 169.413 327.303C169.413 342.903 186.413 363.003 209.413 374.503C222.413 381.003 249.213 388.803 269.413 392.003C283.513 394.203 324.613 395.103 344.013 393.603C384.413 390.403 408.813 385.603 452.613 371.903C479.613 363.403 485.613 362.203 496.113 362.903L504.313 363.503L503.913 358.803C503.613 356.103 503.013 347.003 502.413 338.503C497.013 257.703 485.613 193.703 471.813 166.303C467.313 157.403 463.013 152.503 459.513 152.503C458.113 152.503 452.713 154.903 447.513 157.903Z" fill="black"/>
<path d="M49.0127 310.703C21.9127 347.203 10.9127 368.003 5.21268 394.003C4.41268 397.903 3.91268 406.803 4.01268 419.503C4.11268 437.703 4.31268 439.603 6.81268 448.003C16.7127 481.003 39.4127 505.103 77.9127 523.603C95.1127 531.803 108.113 536.003 129.913 540.103C139.713 542.003 172.913 542.703 181.513 541.203C190.213 539.703 198.413 530.203 200.513 519.203C202.213 509.503 199.313 503.503 186.013 489.703C178.913 482.303 172.913 477.703 162.413 471.603C158.313 469.203 141.613 458.403 125.413 447.703C101.513 431.903 94.5127 426.803 88.6127 420.703C67.5127 398.903 55.4127 368.903 55.4127 338.803C55.4127 329.603 57.3127 313.603 59.8127 301.703C60.5127 298.303 60.9127 295.503 60.7127 295.503C60.6127 295.503 55.3127 302.403 49.0127 310.703Z" fill="black"/>
</g>
<defs>
<filter id="filter0_d" x="0" y="6.10352e-05" width="515.629" height="552.52" filterUnits="userSpaceOnUse" color-interpolation-filters="sRGB">
<feFlood flood-opacity="0" result="BackgroundImageFix"/>
<feColorMatrix in="SourceAlpha" type="matrix" values="0 0 0 0 0 0 0 0 0 0 0 0 0 0 0 0 0 0 127 0"/>
<feOffset dy="4"/>
<feGaussianBlur stdDeviation="2"/>
<feColorMatrix type="matrix" values="0 0 0 0 0 0 0 0 0 0 0 0 0 0 0 0 0 0 0.25 0"/>
<feBlend mode="normal" in2="BackgroundImageFix" result="effect1_dropShadow"/>
<feBlend mode="normal" in="SourceGraphic" in2="effect1_dropShadow" result="shape"/>
</filter>
</defs>
</svg>
