<svg width="186" height="53" viewBox="0 0 186 53" fill="none" xmlns="http://www.w3.org/2000/svg">
<path fill-rule="evenodd" clip-rule="evenodd" d="M139.464 21.2011C143.701 15.1801 147.513 9.76293 151 6.50796C157.094 0.820236 176.392 0.0840107 183.414 0.00786553H93L2.58644 0.0078312C9.60783 0.0839764 28.906 0.820201 35 6.50793C38.4875 9.7629 42.2993 15.1801 46.5359 21.2011C51.4105 28.1286 56.8474 35.8554 63 42.008C74.5 53.508 93 52.6412 93 52.6412C93 52.6412 111.5 53.508 123 42.008C129.153 35.8555 134.59 28.1286 139.464 21.2011ZM2.58644 0.0078312H0C0 0.0078312 0.966461 -0.00973548 2.58644 0.0078312ZM186 0.00786553C186 0.00786553 185.034 -0.00970115 183.414 0.00786553H186Z" fill="#649388"/>
<path d="M84.1144 18.524L83.5744 19.298C82.7704 18.794 81.9484 18.542 81.1084 18.542C79.9564 18.542 79.0504 19.016 78.3904 19.964C77.7784 20.828 77.4724 21.98 77.4724 23.42C77.4724 24.92 77.8684 26.09 78.6604 26.93C79.3324 27.662 80.1964 28.028 81.2524 28.028C82.1164 28.028 82.9384 27.746 83.7184 27.182L84.2584 27.992C83.3224 28.808 82.2604 29.216 81.0724 29.216C79.4284 29.216 78.1384 28.58 77.2024 27.308C76.4344 26.264 76.0504 24.968 76.0504 23.42C76.0504 21.692 76.5184 20.24 77.4544 19.064C78.3424 17.948 79.4764 17.39 80.8564 17.39C82.0804 17.39 83.1664 17.768 84.1144 18.524ZM87.7623 17.39V29H86.5563V18.038L87.7623 17.39ZM91.8422 20.828V29H90.6542V20.828H91.8422ZM90.4742 18.164C90.4742 17.96 90.5522 17.78 90.7082 17.624C90.8642 17.468 91.0502 17.39 91.2662 17.39C91.4822 17.39 91.6682 17.468 91.8242 17.624C91.9802 17.78 92.0582 17.96 92.0582 18.164C92.0582 18.392 91.9802 18.584 91.8242 18.74C91.6682 18.884 91.4822 18.956 91.2662 18.956C91.0382 18.956 90.8462 18.884 90.6902 18.74C90.5462 18.584 90.4742 18.392 90.4742 18.164ZM100.922 21.476L100.526 22.16C99.9138 21.776 99.2478 21.584 98.5278 21.584C97.5438 21.584 96.7758 21.944 96.2238 22.664C95.7438 23.288 95.5038 24.068 95.5038 25.004C95.5038 26 95.8098 26.798 96.4218 27.398C96.9858 27.95 97.7238 28.226 98.6357 28.226C99.4038 28.226 100.082 28.004 100.67 27.56L101.066 28.28C100.394 28.904 99.4938 29.216 98.3658 29.216C97.0458 29.216 95.9958 28.772 95.2158 27.884C94.5438 27.104 94.2078 26.126 94.2078 24.95C94.2078 23.63 94.6458 22.55 95.5218 21.71C96.2778 20.978 97.1898 20.612 98.2578 20.612C99.3018 20.612 100.19 20.9 100.922 21.476ZM109.052 20.828L105.434 24.014L109.484 29H108.026L104.426 24.464V29H103.22V18.038L104.426 17.39V23.564L107.378 20.828H109.052Z" fill="white"/>
</svg>
